<?xml version="1.0" standalone="no"?>
<!DOCTYPE svg PUBLIC "-//W3C//DTD SVG 20010904//EN"
 "http://www.w3.org/TR/2001/REC-SVG-20010904/DTD/svg10.dtd">
<svg version="1.0" xmlns="http://www.w3.org/2000/svg"
 width="768.000000pt" height="768.000000pt" viewBox="0 0 768.000000 768.000000"
 preserveAspectRatio="xMidYMid meet">
<metadata>
Created by potrace 1.11, written by Peter Selinger 2001-2013
</metadata>
<g transform="translate(0.000000,768.000000) scale(0.100000,-0.100000)"
fill="#000000" stroke="none">
<path d="M3609 7676 c-2 -2 -46 -7 -98 -11 -51 -3 -98 -8 -105 -10 -6 -2 -38
-6 -71 -9 -33 -3 -73 -8 -90 -11 -428 -75 -744 -175 -1098 -350 -155 -77 -213
-108 -279 -151 -21 -13 -40 -24 -42 -24 -14 0 -362 -246 -396 -280 -3 -3 -32
-27 -65 -55 -398 -331 -749 -783 -980 -1260 -124 -257 -241 -585 -279 -781 -2
-11 -9 -37 -14 -59 -6 -22 -14 -53 -16 -70 -24 -130 -38 -215 -42 -254 -2 -25
-7 -57 -9 -71 -19 -107 -27 -617 -12 -760 4 -36 9 -92 13 -125 5 -50 28 -197
49 -320 14 -75 80 -321 117 -435 379 -1157 1307 -2081 2466 -2454 120 -39 362
-102 427 -111 22 -3 46 -8 53 -11 8 -2 37 -7 65 -10 29 -4 55 -8 58 -10 4 -2
35 -6 70 -9 35 -4 69 -8 76 -10 80 -26 721 -26 875 0 13 2 43 6 68 9 102 12
294 48 425 82 136 34 403 118 468 148 17 8 70 30 117 49 47 19 128 56 180 83
480 240 894 566 1239 974 91 107 90 106 161 205 382 526 613 1099 705 1743 37
257 41 733 10 967 -21 158 -29 204 -46 295 -213 1091 -891 2034 -1869 2597
-117 68 -393 203 -413 203 -7 0 -17 4 -23 9 -40 36 -574 199 -714 217 -19 2
-50 8 -70 13 -19 5 -60 12 -90 16 -30 4 -64 9 -75 11 -11 2 -49 6 -85 10 -36
3 -78 8 -95 11 -34 5 -561 13 -566 9z m551 -489 c14 -3 50 -8 80 -11 203 -19
581 -108 745 -176 11 -4 63 -25 115 -46 213 -85 404 -185 610 -322 63 -42 117
-79 120 -82 3 -3 25 -21 50 -40 151 -115 350 -300 460 -425 29 -33 65 -73 79
-90 41 -47 192 -252 243 -330 105 -162 229 -400 298 -575 40 -100 113 -317
125 -370 1 -8 8 -33 14 -55 5 -22 13 -55 16 -74 3 -19 8 -37 10 -41 2 -4 7
-22 10 -41 3 -19 10 -59 15 -89 6 -30 12 -75 15 -100 3 -25 8 -54 10 -66 19
-91 27 -559 12 -724 -11 -117 -40 -306 -62 -400 -3 -14 -8 -36 -11 -50 -10
-52 -56 -212 -80 -282 -14 -40 -27 -80 -29 -88 -13 -56 -84 -220 -169 -390
-402 -804 -1150 -1433 -2016 -1695 -117 -35 -292 -77 -377 -91 -19 -3 -45 -7
-56 -10 -12 -2 -39 -6 -62 -9 -22 -4 -51 -8 -65 -10 -127 -20 -594 -27 -735
-12 -38 5 -90 11 -115 13 -25 3 -52 7 -60 9 -8 2 -37 7 -65 11 -67 8 -287 58
-390 88 -587 171 -1149 526 -1555 981 -91 103 -107 122 -191 235 -167 224
-256 376 -387 660 -71 153 -174 467 -196 595 -3 17 -10 45 -15 63 -5 18 -10
35 -10 37 1 10 -12 91 -21 135 -11 50 -16 93 -27 220 -10 111 -10 503 0 605
15 154 17 171 33 255 9 47 18 96 20 110 11 64 68 278 99 373 119 362 293 693
526 998 180 235 423 477 644 640 33 24 62 46 65 49 5 6 166 112 235 155 78 49
264 144 390 200 207 91 531 189 732 221 19 3 45 7 56 10 12 2 39 6 62 9 22 4
51 8 65 10 14 2 61 7 105 10 44 4 81 8 83 10 6 5 525 -3 552 -8z"/>
<path d="M2596 5690 c-2 -3 -3 -828 -2 -1835 l1 -1830 735 0 c818 1 883 3
1080 41 41 9 86 17 100 20 14 3 39 9 56 15 17 5 40 11 50 13 65 14 326 130
344 154 3 4 18 13 33 21 45 24 184 159 231 225 86 120 153 286 172 421 1 11 6
38 9 60 4 22 7 94 7 160 0 105 -4 146 -27 264 -18 94 -81 227 -151 320 -97
129 -273 242 -434 278 -44 10 -80 20 -80 23 0 3 36 18 80 33 250 89 443 321
485 587 9 51 8 193 0 249 -37 249 -146 433 -331 558 -182 123 -391 186 -729
220 -75 7 -1626 10 -1629 3z m1444 -614 c116 -12 124 -13 186 -31 198 -57 291
-178 298 -385 5 -130 -50 -253 -140 -316 -35 -25 -114 -65 -114 -59 0 2 -12 0
-27 -6 -38 -14 -107 -27 -194 -35 -111 -10 -630 -10 -636 0 -8 12 -8 820 0
832 6 11 518 10 627 0z m107 -1440 c303 -54 440 -188 448 -436 10 -307 -131
-495 -410 -545 -22 -4 -49 -10 -60 -13 -11 -2 -176 -7 -367 -9 l-348 -5 0 514
0 514 323 -2 c248 -1 343 -5 414 -18z"/>
</g>
</svg>
